<?xml version="1.0" encoding="UTF-8"?>
<!DOCTYPE svg PUBLIC "-//W3C//DTD SVG 1.1//EN" "http://www.w3.org/Graphics/SVG/1.1/DTD/svg11.dtd">
<!-- Creator: CorelDRAW -->
<svg xmlns="http://www.w3.org/2000/svg" xml:space="preserve" width="100mm" height="20mm" style="shape-rendering:geometricPrecision; text-rendering:geometricPrecision; image-rendering:optimizeQuality; fill-rule:evenodd; clip-rule:evenodd"
viewBox="0 0 100 20"
 xmlns:xlink="http://www.w3.org/1999/xlink">
 <defs>
  <style type="text/css">
   <![CDATA[
    .str1 {stroke:#1F1A17;stroke-width:0.0762}
    .str3 {stroke:white;stroke-width:0.0762}
    .str0 {stroke:#14298F;stroke-width:0.0762}
    .str2 {stroke:#143D8F;stroke-width:0.0762}
    .str4 {stroke:white;stroke-width:0.13}
    .str5 {stroke:white;stroke-width:0.18}
    .fil1 {fill:none}
    .fil4 {fill:#1F1A17}
    .fil5 {fill:#DA251D}
    .fil3 {fill:#FFF500}
    .fil0 {fill:white}
    .fil2 {fill:#143D8F}
    .fil6 {fill:#1F1A17;fill-rule:nonzero}
   ]]>
  </style>
 </defs>
 <g id="Capa_x0020_1">
  <metadata id="CorelCorpID_0Corel-Layer"/>
  <rect class="fil0 str0" x="51" y="3.51" width="10" height="10"/>
  <polyline class="fil1" points="-17.6211,-77.6687 -10.5711,-72.6687 -3.5211,-67.6687 "/>
  <polyline class="fil1" points="-18.2003,-77.6687 -11.1503,-72.6687 -4.1003,-67.6687 "/>
  <rect class="fil1 str1" x="7" y="3.51" width="10" height="9.8008"/>
  <polygon class="fil2 str2" points="17,3.51 7,3.51 7,13.51 17,13.51 "/>
  <polygon class="fil0" points="7,3.51 7,4.51 16,13.51 17,13.51 17,12.51 8,3.5098 "/>
  <polygon class="fil0" points="7,12.51 7,13.51 8,13.51 17,4.51 17,3.51 16,3.51 "/>
  <rect class="fil3" x="18" y="3.5098" width="10" height="10.0002"/>
  <circle class="fil4" cx="23" cy="8.51" r="3"/>
  <polygon class="fil2 str0" points="39,3.5098 29,3.5098 29,13.5098 39,13.5098 "/>
  <rect class="fil0" x="31.5" y="3.5098" width="2.5" height="2.5"/>
  <rect class="fil0" x="36.5159" y="3.5098" width="2.5" height="2.5"/>
  <rect class="fil0" x="29" y="6.0098" width="2.5" height="2.5"/>
  <rect class="fil0" x="34.0159" y="6.0098" width="2.5" height="2.5"/>
  <rect class="fil0" x="31.5" y="8.5216" width="2.5" height="2.5"/>
  <rect class="fil0" x="36.5159" y="8.5216" width="2.5" height="2.5"/>
  <rect class="fil0" x="29" y="11.0216" width="2.5" height="2.5"/>
  <rect class="fil0" x="34.0159" y="11.0216" width="2.5" height="2.5"/>
  <rect class="fil3" x="40" y="3.5098" width="10" height="10.0002"/>
  <circle class="fil4" cx="45" cy="8.51" r="3"/>
  <polygon class="fil2" points="61,3.51 57.6335,3.51 57.6335,13.51 61,13.51 "/>
  <rect class="fil5" x="51" y="3.51" width="3.2594" height="10"/>
  <polygon class="fil0" points="65.333,3.5098 62,3.5098 62,13.51 65.333,13.51 "/>
  <polygon class="fil2" points="65.333,3.5098 65.333,13.51 72,13.51 68.666,8.5099 72,3.5098 "/>
  <rect class="fil3" x="72.965" y="3.5098" width="5.0175" height="5.0001"/>
  <rect class="fil3" x="77.9825" y="8.5099" width="5.0175" height="5.0001"/>
  <rect class="fil4" x="77.9825" y="3.5098" width="5.0175" height="5.0001"/>
  <rect class="fil4" x="72.965" y="8.5099" width="5.0175" height="5.0001"/>
  <rect class="fil1 str1" x="84" y="3.5098" width="10" height="10.0002"/>
  <rect class="fil3" x="84" y="3.5098" width="5" height="10.0002"/>
  <polygon class="fil2" points="94,3.5098 89,3.5098 89,13.5098 94,13.5098 "/>
  <polygon class="fil0 str2" points="65.333,3.5098 61.9665,3.5098 61.9665,13.5098 65.333,13.5098 "/>
  <polygon class="fil6 str3" points="14.3917,18.0324 13.5966,18.0324 13.1174,16.6712 12.1868,18.0653 11.8928,18.0653 10.9622,16.6712 10.4634,18.0324 9.6719,18.0324 10.6025,15.507 11.0375,15.507 12.0383,17.2074 13.0161,15.507 13.4481,15.507 "/>
  <polygon class="fil6 str4" points="22.551,18.0306 22.551,15.507 23.3719,15.507 23.3719,18.0306 "/>
  <polygon class="fil6 str5" points="35.1937,18.0653 32.9502,16.4684 32.9502,18.0324 32.1607,18.0324 32.1607,15.507 32.556,15.507 34.7392,17.0299 34.7392,15.507 35.5277,15.507 35.5277,18.0653 "/>
  <polygon class="fil6 str5" points="44.5756,18.0306 44.5756,15.507 45.3965,15.507 45.3965,18.0306 "/>
  <polygon class="fil6 str5" points="56.3909,15.9051 56.3909,18.0306 55.5702,18.0306 55.5702,15.9051 54.1,15.9051 54.1,15.507 57.9267,15.507 57.9267,15.9051 "/>
  <path class="fil6 str5" d="M67.7965 18.0306l-0.3373 -0.5115 -1.5844 0 -0.322 0.5115 -0.9112 0 1.8429 -2.5582 0.3598 0 1.858 2.5582 -0.9058 0zm-1.1321 -1.7862l-0.5558 0.9319 1.1104 0 -0.5546 -0.9319z"/>
  <polygon class="fil6 str5" points="76.5354,18.0306 76.5354,15.507 77.3561,15.507 77.3561,17.6325 79.4457,17.6325 79.4457,18.0306 "/>
  <polygon class="fil6 str5" points="90.1756,18.0306 88.8885,16.9558 88.3736,17.3397 88.3736,18.0306 87.5529,18.0306 87.5529,15.507 88.3736,15.507 88.3736,16.7147 89.9451,15.507 90.879,15.507 89.4313,16.6095 91.1569,18.0306 "/>
 </g>
</svg>
